<mxfile host="Electron" modified="2024-03-19T03:32:30.147Z" agent="Mozilla/5.0 (Windows NT 10.0; Win64; x64) AppleWebKit/537.36 (KHTML, like Gecko) draw.io/23.1.5 Chrome/120.0.6099.109 Electron/28.1.0 Safari/537.36" etag="H484_rQkKoaq4lv95A8v" version="23.1.5" type="device">
  <diagram name="Page-1" id="GwAmc33Isz2gttrRQmyj">
    <mxGraphModel dx="863" dy="505" grid="1" gridSize="10" guides="1" tooltips="1" connect="1" arrows="1" fold="1" page="1" pageScale="1" pageWidth="850" pageHeight="1100" math="0" shadow="0">
      <root>
        <mxCell id="0" />
        <mxCell id="1" parent="0" />
        <mxCell id="xm4NSXcoNS3rSx-7JAe6-1" value="Online Travel Agent" style="swimlane;whiteSpace=wrap;html=1;labelBackgroundColor=none;fillColor=#F5AB50;strokeColor=#909090;fontColor=#1A1A1A;" vertex="1" parent="1">
          <mxGeometry x="260" y="260" width="450" height="310" as="geometry" />
        </mxCell>
        <mxCell id="xm4NSXcoNS3rSx-7JAe6-3" value="Make Purchase" style="ellipse;whiteSpace=wrap;html=1;labelBackgroundColor=none;fillColor=#F5AB50;strokeColor=#909090;fontColor=#1A1A1A;" vertex="1" parent="xm4NSXcoNS3rSx-7JAe6-1">
          <mxGeometry x="145" y="110" width="160" height="50" as="geometry" />
        </mxCell>
        <mxCell id="xm4NSXcoNS3rSx-7JAe6-4" value="Purchase Flight&amp;nbsp;" style="ellipse;whiteSpace=wrap;html=1;labelBackgroundColor=none;fillColor=#F5AB50;strokeColor=#909090;fontColor=#1A1A1A;" vertex="1" parent="xm4NSXcoNS3rSx-7JAe6-1">
          <mxGeometry x="30" y="210" width="120" height="50" as="geometry" />
        </mxCell>
        <mxCell id="xm4NSXcoNS3rSx-7JAe6-5" value="Purchase car rental" style="ellipse;whiteSpace=wrap;html=1;labelBackgroundColor=none;fillColor=#F5AB50;strokeColor=#909090;fontColor=#1A1A1A;" vertex="1" parent="xm4NSXcoNS3rSx-7JAe6-1">
          <mxGeometry x="165" y="210" width="120" height="50" as="geometry" />
        </mxCell>
        <mxCell id="xm4NSXcoNS3rSx-7JAe6-6" value="Purchase a hotel stay" style="ellipse;whiteSpace=wrap;html=1;labelBackgroundColor=none;fillColor=#F5AB50;strokeColor=#909090;fontColor=#1A1A1A;" vertex="1" parent="xm4NSXcoNS3rSx-7JAe6-1">
          <mxGeometry x="310" y="210" width="120" height="50" as="geometry" />
        </mxCell>
        <mxCell id="xm4NSXcoNS3rSx-7JAe6-8" value="Provide payment information" style="ellipse;whiteSpace=wrap;html=1;labelBackgroundColor=none;fillColor=#F5AB50;strokeColor=#909090;fontColor=#1A1A1A;" vertex="1" parent="xm4NSXcoNS3rSx-7JAe6-1">
          <mxGeometry x="70" y="30" width="120" height="50" as="geometry" />
        </mxCell>
        <mxCell id="xm4NSXcoNS3rSx-7JAe6-9" value="Provide address" style="ellipse;whiteSpace=wrap;html=1;labelBackgroundColor=none;fillColor=#F5AB50;strokeColor=#909090;fontColor=#1A1A1A;" vertex="1" parent="xm4NSXcoNS3rSx-7JAe6-1">
          <mxGeometry x="300" y="30" width="120" height="50" as="geometry" />
        </mxCell>
        <mxCell id="xm4NSXcoNS3rSx-7JAe6-10" value="&amp;lt;&amp;lt;include&amp;gt;&amp;gt;" style="html=1;verticalAlign=bottom;labelBackgroundColor=none;endArrow=open;endFill=0;dashed=1;rounded=0;exitX=0;exitY=0;exitDx=0;exitDy=0;entryX=0.5;entryY=1;entryDx=0;entryDy=0;strokeColor=#182E3E;fontColor=default;" edge="1" parent="xm4NSXcoNS3rSx-7JAe6-1" source="xm4NSXcoNS3rSx-7JAe6-3" target="xm4NSXcoNS3rSx-7JAe6-8">
          <mxGeometry width="160" relative="1" as="geometry">
            <mxPoint x="90" y="230" as="sourcePoint" />
            <mxPoint x="250" y="230" as="targetPoint" />
          </mxGeometry>
        </mxCell>
        <mxCell id="xm4NSXcoNS3rSx-7JAe6-11" value="&amp;lt;&amp;lt;include&amp;gt;&amp;gt;" style="html=1;verticalAlign=bottom;labelBackgroundColor=none;endArrow=open;endFill=0;dashed=1;rounded=0;entryX=0;entryY=1;entryDx=0;entryDy=0;exitX=1;exitY=0;exitDx=0;exitDy=0;strokeColor=#182E3E;fontColor=default;" edge="1" parent="xm4NSXcoNS3rSx-7JAe6-1" source="xm4NSXcoNS3rSx-7JAe6-3" target="xm4NSXcoNS3rSx-7JAe6-9">
          <mxGeometry width="160" relative="1" as="geometry">
            <mxPoint x="90" y="230" as="sourcePoint" />
            <mxPoint x="250" y="230" as="targetPoint" />
          </mxGeometry>
        </mxCell>
        <mxCell id="xm4NSXcoNS3rSx-7JAe6-12" value="" style="endArrow=classic;html=1;rounded=0;entryX=0;entryY=1;entryDx=0;entryDy=0;exitX=0.5;exitY=0;exitDx=0;exitDy=0;labelBackgroundColor=none;strokeColor=#182E3E;fontColor=default;" edge="1" parent="xm4NSXcoNS3rSx-7JAe6-1" source="xm4NSXcoNS3rSx-7JAe6-4" target="xm4NSXcoNS3rSx-7JAe6-3">
          <mxGeometry width="50" height="50" relative="1" as="geometry">
            <mxPoint x="150" y="250" as="sourcePoint" />
            <mxPoint x="200" y="200" as="targetPoint" />
          </mxGeometry>
        </mxCell>
        <mxCell id="xm4NSXcoNS3rSx-7JAe6-13" value="" style="endArrow=classic;html=1;rounded=0;entryX=0.5;entryY=1;entryDx=0;entryDy=0;exitX=0.5;exitY=0;exitDx=0;exitDy=0;labelBackgroundColor=none;strokeColor=#182E3E;fontColor=default;" edge="1" parent="xm4NSXcoNS3rSx-7JAe6-1" source="xm4NSXcoNS3rSx-7JAe6-5" target="xm4NSXcoNS3rSx-7JAe6-3">
          <mxGeometry width="50" height="50" relative="1" as="geometry">
            <mxPoint x="150" y="250" as="sourcePoint" />
            <mxPoint x="200" y="200" as="targetPoint" />
          </mxGeometry>
        </mxCell>
        <mxCell id="xm4NSXcoNS3rSx-7JAe6-14" value="" style="endArrow=classic;html=1;rounded=0;entryX=1;entryY=1;entryDx=0;entryDy=0;exitX=0.5;exitY=0;exitDx=0;exitDy=0;labelBackgroundColor=none;strokeColor=#182E3E;fontColor=default;" edge="1" parent="xm4NSXcoNS3rSx-7JAe6-1" source="xm4NSXcoNS3rSx-7JAe6-6" target="xm4NSXcoNS3rSx-7JAe6-3">
          <mxGeometry width="50" height="50" relative="1" as="geometry">
            <mxPoint x="150" y="250" as="sourcePoint" />
            <mxPoint x="200" y="200" as="targetPoint" />
          </mxGeometry>
        </mxCell>
        <mxCell id="xm4NSXcoNS3rSx-7JAe6-2" value="Customer" style="shape=umlActor;verticalLabelPosition=bottom;verticalAlign=top;html=1;outlineConnect=0;labelBackgroundColor=none;fillColor=#F5AB50;strokeColor=#909090;fontColor=#1A1A1A;" vertex="1" parent="1">
          <mxGeometry x="190" y="290" width="30" height="60" as="geometry" />
        </mxCell>
        <mxCell id="xm4NSXcoNS3rSx-7JAe6-15" value="" style="endArrow=classic;html=1;rounded=0;entryX=0;entryY=0.5;entryDx=0;entryDy=0;labelBackgroundColor=none;strokeColor=#182E3E;fontColor=default;" edge="1" parent="1" target="xm4NSXcoNS3rSx-7JAe6-3">
          <mxGeometry width="50" height="50" relative="1" as="geometry">
            <mxPoint x="240" y="330" as="sourcePoint" />
            <mxPoint x="460" y="460" as="targetPoint" />
          </mxGeometry>
        </mxCell>
      </root>
    </mxGraphModel>
  </diagram>
</mxfile>
